<svg width="790" height="135" viewBox="0 0 790 135" fill="none" xmlns="http://www.w3.org/2000/svg">
<path d="M6.13424 76.1668C-15.8706 24.8544 26.5875 4.00878 50.5672 0C175.402 0 266.385 76.1668 329.86 92.2019C393.336 108.237 480.086 104.228 594.342 166.364C708.598 228.5 731.873 284.623 793.233 342.751C854.592 400.878 905.373 364.799 990.007 370.812C1074.64 376.825 1104.26 436.957 990.007 483.058C875.751 529.159 820.739 485.062 731.873 483.058C643.007 481.054 526.635 382.838 480.086 316.694C433.537 250.549 361.598 194.426 266.385 184.404C171.171 174.382 33.6404 140.307 6.13424 76.1668Z" fill="url(#paint0_linear)"/>
<defs>
<linearGradient id="paint0_linear" x1="1172.36" y1="705.194" x2="816.928" y2="-348.948" gradientUnits="userSpaceOnUse">
<stop stop-color="#315EFB"/>
<stop offset="1" stop-color="#315EFB" stop-opacity="0"/>
</linearGradient>
</defs>
</svg>
