<svg width="312" height="20" viewBox="0 0 312 20" fill="none" xmlns="http://www.w3.org/2000/svg">
<path d="M26 11H140" stroke="#EEEEFF" stroke-width="2" stroke-linecap="round" stroke-linejoin="round"/>
<ellipse cx="87.7999" cy="11" rx="3.20002" ry="3" fill="#EEEEFF"/>
<path d="M75 10L87.8001 8V14L75 12V10Z" fill="url(#paint0_linear)"/>
<ellipse cx="233.8" cy="11" rx="3.20002" ry="3" fill="#EEEEFF"/>
<path d="M221 10L233.8 8V14L221 12V10Z" fill="url(#paint1_linear)"/>
<path d="M172 11H286" stroke="#EEEEFF" stroke-width="2" stroke-linecap="round" stroke-linejoin="round"/>
<circle cx="10" cy="10" r="10" fill="url(#paint2_linear)"/>
<circle cx="156" cy="10" r="10" fill="url(#paint3_linear)"/>
<circle cx="302" cy="10" r="10" fill="url(#paint4_linear)"/>
<defs>
<linearGradient id="paint0_linear" x1="81.9334" y1="11" x2="71.2666" y2="11" gradientUnits="userSpaceOnUse">
<stop stop-color="#EEEEFF"/>
<stop offset="1" stop-color="#EEEEFF" stop-opacity="0"/>
</linearGradient>
<linearGradient id="paint1_linear" x1="227.933" y1="11" x2="217.267" y2="11" gradientUnits="userSpaceOnUse">
<stop stop-color="#EEEEFF"/>
<stop offset="1" stop-color="#EEEEFF" stop-opacity="0"/>
</linearGradient>
<linearGradient id="paint2_linear" x1="22.0161" y1="27.9839" x2="-7.35995e-07" y2="-2.91667" gradientUnits="userSpaceOnUse">
<stop stop-color="#315EFB"/>
<stop offset="1" stop-color="#315EFB" stop-opacity="0"/>
</linearGradient>
<linearGradient id="paint3_linear" x1="166.829" y1="16.3411" x2="140.302" y2="14.6986" gradientUnits="userSpaceOnUse">
<stop stop-color="#DADAFF"/>
<stop offset="1" stop-color="#EEEEFF" stop-opacity="0"/>
</linearGradient>
<linearGradient id="paint4_linear" x1="312.829" y1="16.3411" x2="286.302" y2="14.6986" gradientUnits="userSpaceOnUse">
<stop stop-color="#DADAFF"/>
<stop offset="1" stop-color="#EEEEFF" stop-opacity="0"/>
</linearGradient>
</defs>
</svg>
