<svg width="314" height="20" viewBox="0 0 314 20" fill="none" xmlns="http://www.w3.org/2000/svg">
<path d="M26 11H140" stroke="#EEEEFF" stroke-width="2" stroke-linecap="round" stroke-linejoin="round"/>
<ellipse cx="87.7999" cy="11" rx="3.20002" ry="3" fill="#EEEEFF"/>
<path d="M75 10L87.8001 8V14L75 12V10Z" fill="url(#paint0_linear)"/>
<ellipse cx="233.8" cy="11" rx="3.20002" ry="3" fill="#EEEEFF"/>
<path d="M221 10L233.8 8V14L221 12V10Z" fill="url(#paint1_linear)"/>
<path d="M172 11H286" stroke="#EEEEFF" stroke-width="2" stroke-linecap="round" stroke-linejoin="round"/>
<circle cx="10" cy="10" r="10" fill="url(#paint2_linear)"/>
<circle cx="156" cy="10" r="10" fill="url(#paint3_linear)"/>
<circle cx="295" cy="11" r="3" fill="url(#paint4_linear)"/>
<circle cx="303" cy="11" r="3" fill="url(#paint5_linear)"/>
<circle cx="311" cy="11" r="3" fill="url(#paint6_linear)"/>
<defs>
<linearGradient id="paint0_linear" x1="81.9334" y1="11" x2="71.2666" y2="11" gradientUnits="userSpaceOnUse">
<stop stop-color="#EEEEFF"/>
<stop offset="1" stop-color="#EEEEFF" stop-opacity="0"/>
</linearGradient>
<linearGradient id="paint1_linear" x1="227.933" y1="11" x2="217.267" y2="11" gradientUnits="userSpaceOnUse">
<stop stop-color="#EEEEFF"/>
<stop offset="1" stop-color="#EEEEFF" stop-opacity="0"/>
</linearGradient>
<linearGradient id="paint2_linear" x1="20.8287" y1="16.3411" x2="-5.69838" y2="14.6986" gradientUnits="userSpaceOnUse">
<stop stop-color="#DADAFF"/>
<stop offset="1" stop-color="#EEEEFF" stop-opacity="0"/>
</linearGradient>
<linearGradient id="paint3_linear" x1="166.829" y1="16.3411" x2="140.302" y2="14.6986" gradientUnits="userSpaceOnUse">
<stop stop-color="#DADAFF"/>
<stop offset="1" stop-color="#EEEEFF" stop-opacity="0"/>
</linearGradient>
<linearGradient id="paint4_linear" x1="298.249" y1="12.9023" x2="290.29" y2="12.4096" gradientUnits="userSpaceOnUse">
<stop stop-color="#DADAFF"/>
<stop offset="1" stop-color="#EEEEFF" stop-opacity="0"/>
</linearGradient>
<linearGradient id="paint5_linear" x1="306.249" y1="12.9023" x2="298.29" y2="12.4096" gradientUnits="userSpaceOnUse">
<stop stop-color="#DADAFF"/>
<stop offset="1" stop-color="#EEEEFF" stop-opacity="0"/>
</linearGradient>
<linearGradient id="paint6_linear" x1="314.249" y1="12.9023" x2="306.29" y2="12.4096" gradientUnits="userSpaceOnUse">
<stop stop-color="#DADAFF"/>
<stop offset="1" stop-color="#EEEEFF" stop-opacity="0"/>
</linearGradient>
</defs>
</svg>
