<svg width="402" height="99" viewBox="0 0 402 99" fill="none" xmlns="http://www.w3.org/2000/svg">
<path d="M340.167 -24.7057C304.699 -33.779 261.497 -20.9251 244.33 -13.3641C141.775 7.21891 133.714 -31.8467 60.269 -33.947C-13.1764 -36.0473 -4.66745 24.8615 9.66335 49.645C23.9941 74.4286 60.7168 39.1435 89.3784 37.4633C118.04 35.783 121.175 79.8894 187.007 66.4474C252.839 53.0055 249.704 60.5666 318.671 66.4474C387.638 72.3283 401.073 31.1624 401.969 13.9399C402.865 -3.2826 384.503 -13.3641 340.167 -24.7057Z" fill="white"/>
<circle cx="123.5" cy="-1.50024" r="26.5" fill="url(#paint0_linear)"/>
<circle cx="197.5" cy="26.4998" r="72.5" fill="url(#paint1_linear)"/>
<circle cx="278" cy="48.9998" r="42" fill="url(#paint2_linear)"/>
<circle cx="96.9998" cy="18.9998" r="15" fill="url(#paint3_linear)"/>
<defs>
<linearGradient id="paint0_linear" x1="155.343" y1="46.157" x2="96.9998" y2="-35.7294" gradientUnits="userSpaceOnUse">
<stop stop-color="#315EFB"/>
<stop offset="1" stop-color="#315EFB" stop-opacity="0"/>
</linearGradient>
<linearGradient id="paint1_linear" x1="284.617" y1="156.883" x2="125" y2="-67.1461" gradientUnits="userSpaceOnUse">
<stop stop-color="#28BC00"/>
<stop offset="1" stop-color="#28BC00" stop-opacity="0"/>
</linearGradient>
<linearGradient id="paint2_linear" x1="323.48" y1="75.6322" x2="212.067" y2="68.7338" gradientUnits="userSpaceOnUse">
<stop stop-color="#DADAFF"/>
<stop offset="1" stop-color="#EEEEFF" stop-opacity="0"/>
</linearGradient>
<linearGradient id="paint3_linear" x1="113.243" y1="28.5113" x2="73.4523" y2="26.0476" gradientUnits="userSpaceOnUse">
<stop stop-color="#DADAFF"/>
<stop offset="1" stop-color="#EEEEFF" stop-opacity="0"/>
</linearGradient>
</defs>
</svg>
